<?xml version="1.0" standalone="no"?>
<!DOCTYPE svg PUBLIC "-//W3C//DTD SVG 20010904//EN"
 "http://www.w3.org/TR/2001/REC-SVG-20010904/DTD/svg10.dtd">
<svg version="1.0" xmlns="http://www.w3.org/2000/svg"
 width="720.000000pt" height="720.000000pt" viewBox="0 0 720.000000 720.000000"
 preserveAspectRatio="xMidYMid meet">

<g transform="translate(0.000000,720.000000) scale(0.100000,-0.100000)"
fill="#4089C7" stroke="none">
<path d="M2540 5870 c-1228 -6 -1124 3 -1225 -98 -32 -31 -69 -82 -84 -112
l-26 -55 0 -2010 0 -2010 23 -50 c29 -63 102 -139 167 -173 l50 -27 1452 -3
c1446 -2 1452 -2 1507 18 108 41 204 163 221 280 l6 45 -66 25 c-36 13 -71 30
-77 37 -20 25 -28 13 -28 -41 0 -90 -34 -147 -112 -187 -37 -19 -74 -19 -1440
-17 l-1403 3 -45 25 c-27 15 -53 41 -67 65 l-23 40 0 1973 c0 2152 -4 1996 57
2054 63 60 23 58 1098 58 541 0 990 -3 999 -6 14 -5 16 -45 16 -338 0 -380 3
-403 71 -480 23 -26 65 -59 93 -74 l51 -27 350 -5 350 -5 3 -352 2 -353 85 0
85 0 0 417 0 417 -482 483 c-339 338 -490 483 -508 485 -14 2 -509 1 -1100 -2z
m1499 -609 c160 -159 291 -294 291 -300 0 -8 -85 -11 -270 -11 l-270 0 -36 33
c-29 26 -38 44 -45 83 -9 58 -12 488 -3 497 4 3 15 2 24 -3 10 -5 149 -140
309 -299z"/>
<path d="M5165 5849 c-236 -126 -379 -374 -362 -632 10 -155 60 -271 184 -425
77 -95 78 -135 13 -377 -40 -145 -95 -343 -136 -485 -18 -63 -40 -144 -49
-180 -9 -36 -27 -101 -40 -145 -13 -44 -60 -213 -105 -375 -44 -162 -96 -349
-115 -415 -45 -158 -121 -436 -152 -555 -30 -117 -28 -181 11 -267 34 -75 94
-134 174 -171 83 -38 194 -38 275 0 147 69 187 137 241 413 20 99 65 324 101
500 36 176 72 356 81 400 8 44 29 148 46 230 16 83 74 369 128 636 93 465 118
558 158 602 9 11 49 34 87 53 234 112 380 324 401 579 8 92 -23 232 -72 332
-37 74 -155 215 -169 201 -8 -7 -41 -192 -75 -413 -14 -90 -25 -134 -37 -146
-10 -10 -87 -41 -170 -69 -130 -43 -156 -49 -175 -39 -36 19 -221 155 -242
178 -23 25 -19 88 19 314 31 186 40 277 29 277 -5 0 -27 -10 -49 -21z m-358
-3500 c42 -15 112 -89 123 -129 23 -83 0 -161 -63 -217 -132 -116 -337 -27
-337 147 1 124 82 207 207 209 23 1 54 -4 70 -10z"/>
<path d="M1950 3931 c-73 -22 -128 -70 -154 -135 -14 -34 -16 -109 -16 -603 0
-630 -3 -598 72 -670 70 -67 -16 -63 1297 -63 l1190 0 11 43 c5 23 24 89 40
147 16 58 36 130 44 160 26 96 51 186 144 520 50 179 100 359 111 400 12 41
30 105 40 143 l20 67 -1387 -1 c-763 0 -1398 -4 -1412 -8z m720 -353 c19 -9
55 -37 79 -61 57 -60 77 -132 60 -225 -15 -85 -55 -138 -133 -176 -52 -27 -68
-30 -152 -29 l-94 0 0 -133 c0 -152 8 -142 -104 -134 l-71 5 -3 374 c-2 281 1
377 10 388 18 22 358 14 408 -9z m595 1 c83 -25 144 -79 188 -164 28 -54 31
-70 35 -173 4 -100 1 -122 -22 -195 -32 -104 -74 -155 -160 -197 -62 -29 -67
-30 -234 -32 -94 -1 -174 1 -178 5 -10 10 -12 739 -2 760 8 15 26 17 157 17
122 0 161 -4 216 -21z m790 -54 l0 -70 -153 -3 -153 -3 7 -82 c3 -45 9 -86 12
-91 2 -5 52 -6 110 -3 137 7 142 4 142 -78 0 -36 -3 -65 -7 -65 -5 0 -64 -2
-133 -4 l-125 -3 -3 -152 -3 -152 -87 3 -87 3 0 370 c0 204 3 378 7 388 7 16
26 17 240 15 l233 -3 0 -70z"/>
<path d="M2430 3340 l0 -110 60 0 c76 0 117 20 136 67 19 44 10 89 -24 126
-24 25 -32 27 -99 27 l-73 0 0 -110z"/>
<path d="M3072 3208 l3 -243 50 -3 c120 -6 190 89 187 253 -2 85 -13 127 -48
176 -30 44 -66 59 -141 59 l-53 0 2 -242z"/>
</g>
</svg>
